<svg width="18" height="18" viewBox="0 0 18 18" fill="none" xmlns="http://www.w3.org/2000/svg">
<path fill-rule="evenodd" clip-rule="evenodd" d="M9.63895 1.15984C11.4291 1.33886 13.0989 2.14309 14.3549 3.43121C15.7233 4.82126 16.5323 6.66622 16.6277 8.61442C16.7232 10.5626 16.0984 12.4778 14.8724 13.995C13.7449 15.3965 12.1626 16.3594 10.3997 16.7169C8.63682 17.0745 6.8044 16.804 5.21995 15.9525C3.6321 15.0825 2.39252 13.6919 1.70995 12.015C1.02432 10.3294 0.933066 8.46058 1.4512 6.71621C1.96822 4.97864 3.06889 3.47266 4.56745 2.45246C6.0534 1.43874 7.84905 0.981061 9.63895 1.15984ZM10.1699 15.615C11.6806 15.3086 13.0372 14.485 14.0062 13.2862C15.0554 11.9823 15.5892 10.3384 15.5062 8.66685C15.4233 6.99527 14.7293 5.41236 13.5562 4.21871C12.4817 3.12185 11.0558 2.43752 9.52792 2.28535C8 2.13317 6.4672 2.52283 5.19745 3.38621C4.24169 4.04478 3.46989 4.93646 2.95518 5.97678C2.44047 7.0171 2.19988 8.1716 2.25621 9.33092C2.31255 10.4902 2.66393 11.616 3.27708 12.6015C3.89023 13.587 4.74484 14.3997 5.75995 14.9625C7.10806 15.69 8.6689 15.921 10.1699 15.615ZM8.29682 6.74996H9.70307V5.62496H8.29682V6.74996ZM9.70307 7.87496V12.375H8.29682V7.87496H9.70307Z" fill="currentColor"/>
</svg>
