<svg width="14" height="14" viewBox="0 0 14 14" opacity="0.15" fill="none" xmlns="http://www.w3.org/2000/svg">
<path d="M12.8828 0C13.3063 0 13.6503 0.343196 13.6504 0.766602V3.18848L12.7393 3.19043C12.4883 3.19108 12.284 3.39556 12.2842 3.64648C12.2847 3.89748 12.4893 4.1017 12.7402 4.10156L13.6504 4.09961V4.73828L12.7422 4.73438C12.4913 4.73336 12.2858 4.93566 12.2842 5.18652C12.2829 5.43768 12.4862 5.64305 12.7373 5.64453L13.6504 5.64844V6.29785L12.7393 6.2998C12.4883 6.30046 12.284 6.50494 12.2842 6.75586C12.2847 7.00691 12.4892 7.21107 12.7402 7.21094L13.6504 7.20898V7.84766L12.7422 7.84277C12.4913 7.84176 12.2857 8.04497 12.2842 8.2959C12.2829 8.54706 12.4862 8.75242 12.7373 8.75391L13.6504 8.75781V9.3916L12.7422 9.38672C12.4912 9.3857 12.2856 9.58888 12.2842 9.83984C12.2831 10.0908 12.4863 10.2964 12.7373 10.2979L13.6504 10.3018V12.8828C13.6504 13.3063 13.3063 13.6504 12.8828 13.6504H0.766602C0.730433 13.6504 0.694991 13.6465 0.660156 13.6416L3.95508 10.8623C3.96792 10.8515 3.97926 10.8386 3.99121 10.8271C4.2779 11.0115 4.61831 11.1201 4.98438 11.1201C6.00063 11.1201 6.82491 10.2955 6.8252 9.2793C6.8252 8.26286 6.0008 7.43851 4.98438 7.43848C3.96802 7.43859 3.14355 8.26292 3.14355 9.2793C3.14358 9.37844 3.15382 9.47541 3.16895 9.57031C3.09744 9.59986 3.0281 9.63787 2.96582 9.69043L0 12.1934V9.39746L3.96094 6.05469C4.25358 6.25087 4.60571 6.36519 4.98438 6.36523C6.00076 6.3652 6.82513 5.54079 6.8252 4.52441C6.8252 3.50798 6.0008 2.68363 4.98438 2.68359C3.96803 2.68372 3.14355 3.50804 3.14355 4.52441C3.14356 4.59746 3.14894 4.66941 3.15723 4.74023C3.12207 4.76128 3.08799 4.78522 3.05566 4.8125L0 7.39062V0.766602C0.000136632 0.34328 0.34328 0.000136302 0.766602 0H12.8828ZM4.98438 8.5127C5.40787 8.51273 5.75098 8.85579 5.75098 9.2793C5.75069 9.70256 5.4077 10.0459 4.98438 10.0459C4.56112 10.0458 4.21806 9.70251 4.21777 9.2793C4.21777 8.85585 4.56095 8.51281 4.98438 8.5127ZM4.98438 3.75781C5.40787 3.75784 5.75098 4.10091 5.75098 4.52441C5.75091 4.94786 5.40783 5.29098 4.98438 5.29102C4.561 5.29088 4.21784 4.9478 4.21777 4.52441C4.21777 4.10097 4.56096 3.75794 4.98438 3.75781Z" fill="black"/>
</svg>
