<svg width="99" height="16" viewBox="0 0 99 16" opacity="0.3" fill="none" xmlns="http://www.w3.org/2000/svg">
<path d="M12.8828 1.80273C13.3063 1.80273 13.6503 2.14593 13.6504 2.56934V4.99121L12.7393 4.99316C12.4883 4.99382 12.284 5.1983 12.2842 5.44922C12.2847 5.70022 12.4893 5.90443 12.7402 5.9043L13.6504 5.90234V6.54102L12.7422 6.53711C12.4913 6.53609 12.2858 6.73839 12.2842 6.98926C12.2829 7.24041 12.4862 7.44578 12.7373 7.44727L13.6504 7.45117V8.10059L12.7393 8.10254C12.4883 8.10319 12.284 8.30767 12.2842 8.55859C12.2847 8.80965 12.4892 9.01381 12.7402 9.01367L13.6504 9.01172V9.65039L12.7422 9.64551C12.4913 9.64449 12.2857 9.84771 12.2842 10.0986C12.2829 10.3498 12.4862 10.5552 12.7373 10.5566L13.6504 10.5605V11.1943L12.7422 11.1895C12.4912 11.1884 12.2856 11.3916 12.2842 11.6426C12.2831 11.8936 12.4863 12.0991 12.7373 12.1006L13.6504 12.1045V14.6855C13.6504 15.1091 13.3063 15.4531 12.8828 15.4531H0.766602C0.730433 15.4531 0.694991 15.4492 0.660156 15.4443L3.95508 12.665C3.96792 12.6542 3.97926 12.6414 3.99121 12.6299C4.2779 12.8142 4.61831 12.9228 4.98438 12.9229C6.00063 12.9228 6.82491 12.0982 6.8252 11.082C6.8252 10.0656 6.0008 9.24124 4.98438 9.24121C3.96802 9.24132 3.14355 10.0656 3.14355 11.082C3.14358 11.1812 3.15382 11.2781 3.16895 11.373C3.09744 11.4026 3.0281 11.4406 2.96582 11.4932L0 13.9961V11.2002L3.96094 7.85742C4.25358 8.0536 4.60571 8.16792 4.98438 8.16797C6.00076 8.16794 6.82513 7.34353 6.8252 6.32715C6.8252 5.31072 6.0008 4.48636 4.98438 4.48633C3.96803 4.48646 3.14355 5.31078 3.14355 6.32715C3.14356 6.40019 3.14894 6.47214 3.15723 6.54297C3.12207 6.56402 3.08799 6.58796 3.05566 6.61523L0 9.19336V2.56934C0.000136632 2.14601 0.34328 1.80287 0.766602 1.80273H12.8828ZM4.98438 10.3154C5.40787 10.3155 5.75098 10.6585 5.75098 11.082C5.75069 11.5053 5.4077 11.8486 4.98438 11.8486C4.56112 11.8485 4.21806 11.5052 4.21777 11.082C4.21777 10.6586 4.56095 10.3155 4.98438 10.3154ZM4.98438 5.56055C5.40787 5.56058 5.75098 5.90365 5.75098 6.32715C5.75091 6.75059 5.40783 7.09372 4.98438 7.09375C4.561 7.09362 4.21784 6.75053 4.21777 6.32715C4.21777 5.90371 4.56096 5.56068 4.98438 5.56055Z" fill="black"/>
<path d="M21.1503 3.9108C21.6773 2.6528 21.6773 2.7038 23.5303 2.7208C24.2953 2.7208 24.5163 3.3328 24.9923 4.6078C28.5453 14.1278 29.1233 14.2468 27.6613 14.3828C25.6213 14.5528 25.9613 14.2808 25.2643 12.7508C25.0433 12.2748 24.9583 11.9518 24.3973 11.8498C23.9723 11.7648 23.9213 11.8158 22.7483 11.8668C21.7793 11.9008 21.5583 11.8328 21.1843 11.9008C20.6063 12.0198 20.2153 12.9208 20.0283 13.4818C19.8243 14.0938 19.8073 14.3998 19.3823 14.4508C19.0423 14.5018 17.6313 14.5358 17.4103 14.4508C17.0533 14.3148 17.2573 14.0088 17.7843 12.5468C18.8043 9.7588 19.9603 6.6478 21.1503 3.9108ZM22.0853 9.9458C22.5273 9.9628 22.9523 9.9458 23.3773 9.9798C23.4793 9.9968 23.5813 9.9628 23.6833 9.9458C24.0573 9.8778 24.2783 9.5208 24.0403 8.9258C23.4793 7.4468 23.4113 7.1918 23.1393 6.9708C22.5953 6.5458 22.2893 7.2598 22.0343 7.8888C21.8473 8.3478 21.6943 8.8068 21.5753 9.2658C21.4563 9.6738 21.6603 9.9458 22.0853 9.9458ZM29.6956 7.3618C29.7976 3.2138 29.3386 2.8398 30.7496 2.7038C31.1576 2.6698 33.0446 2.5848 34.3366 2.6528C36.7846 2.7718 38.8246 3.3158 39.3006 5.6788C39.4876 6.6988 39.3006 8.0758 38.4846 8.9938C36.5296 11.1868 32.8406 9.2318 32.5006 10.8808C32.4496 11.1018 32.4496 11.3228 32.4496 11.5438C32.4326 14.7568 32.4156 14.5018 31.8036 14.5358C31.4636 14.5528 30.8176 14.6038 30.0696 14.4848C29.6276 14.4338 29.6616 13.7368 29.6786 10.5578C29.6786 10.5408 29.6956 7.7018 29.6956 7.3618ZM32.4156 5.8658C32.3476 8.2288 32.5176 8.0758 34.1496 8.1268C34.7106 8.1438 35.4246 8.0928 35.9176 7.8038C36.4956 7.4808 36.7676 6.8348 36.6826 6.2398C36.4786 4.7268 35.1866 4.8288 34.0306 4.7778C33.9286 4.7778 33.4526 4.7948 33.0616 4.8798C32.6026 4.9648 32.4326 5.3898 32.4156 5.8658ZM40.8353 7.3618C40.9373 3.2138 40.4783 2.8398 41.8893 2.7038C42.2973 2.6698 44.1843 2.5848 45.4763 2.6528C47.9243 2.7718 49.9643 3.3158 50.4403 5.6788C50.6273 6.6988 50.4403 8.0758 49.6243 8.9938C47.6693 11.1868 43.9803 9.2318 43.6403 10.8808C43.5893 11.1018 43.5893 11.3228 43.5893 11.5438C43.5723 14.7568 43.5553 14.5018 42.9433 14.5358C42.6033 14.5528 41.9573 14.6038 41.2093 14.4848C40.7673 14.4338 40.8013 13.7368 40.8183 10.5578C40.8183 10.5408 40.8353 7.7018 40.8353 7.3618ZM43.5553 5.8658C43.4873 8.2288 43.6573 8.0758 45.2893 8.1268C45.8503 8.1438 46.5643 8.0928 47.0573 7.8038C47.6353 7.4808 47.9073 6.8348 47.8223 6.2398C47.6183 4.7268 46.3263 4.8288 45.1703 4.7778C45.0683 4.7778 44.5923 4.7948 44.2013 4.8798C43.7423 4.9648 43.5723 5.3898 43.5553 5.8658ZM53.9809 5.1008C53.7769 5.0498 52.0769 5.0328 51.6179 4.9988C51.3289 4.9818 51.1589 4.9138 51.1079 4.5568C51.0399 4.1318 51.0739 2.9928 51.0739 2.9588C51.1079 2.4658 51.4649 2.5678 53.7599 2.5338C55.7489 2.4998 59.5739 2.5168 60.2879 2.5338C60.5939 2.5338 60.8149 2.5678 60.8489 2.8738C60.8659 2.9758 60.9169 4.3358 60.9169 4.3528C60.8829 5.2028 60.6789 4.9308 58.5709 4.9818C56.9219 5.0158 57.5339 5.3728 57.4319 13.8388C57.4149 14.8078 57.1089 14.6718 56.5819 14.7058C55.3749 14.7568 54.6949 14.8588 54.6949 14.0428C54.6949 12.6488 54.6779 11.2378 54.6949 9.8438C54.7289 6.4948 54.9669 5.3048 53.9809 5.1008ZM62.1521 9.4528C62.1521 8.9088 62.1351 4.8118 62.1521 3.3498C62.1521 2.9418 62.3731 2.7208 62.7641 2.6358C63.1041 2.5678 68.2551 2.5508 69.7511 2.8908C72.2501 3.4518 72.6751 6.7328 71.3151 8.1268C70.9581 8.5008 70.9581 8.9938 71.2131 9.3508C72.0121 10.4558 71.9271 11.7138 71.9951 12.7338C72.0801 13.7198 72.5221 14.5698 71.9441 14.6208C71.2981 14.6888 70.6521 14.6378 69.9891 14.6378C68.9691 14.6548 69.5641 12.5468 68.7311 10.7278C68.4081 10.0478 67.8301 9.9798 67.1331 9.9288C64.9401 9.7928 64.8891 10.1668 64.8891 12.0538C64.8891 14.3318 65.0931 14.6208 64.3621 14.6208C62.4581 14.6208 62.3051 14.7398 62.1861 14.2128C62.1011 13.8558 62.1861 14.2468 62.1521 9.4528ZM64.9401 6.2228C64.9401 6.3248 64.9231 7.3278 64.9571 7.5318C65.0081 7.7528 65.2291 7.9908 65.4161 8.0248C66.1471 8.1608 67.5071 8.1098 67.9661 8.0248C69.6321 7.7018 69.5641 5.3728 68.2381 4.9308C67.5581 4.7098 66.8781 4.7608 66.3681 4.7608C64.7021 4.7268 64.9741 5.6108 64.9401 6.2228ZM79.5974 14.8928C74.2764 15.1818 71.8114 8.6198 74.8714 4.6758C78.4584 0.000796437 86.0064 2.8738 85.2244 9.4188C84.8164 12.7168 82.9974 14.7228 79.5974 14.8928ZM82.5554 8.4838C82.5044 3.3498 76.1464 3.7748 76.1804 8.5858C76.1804 13.7708 82.6064 14.1618 82.5554 8.4838ZM87.0058 14.0428C86.9208 13.5328 86.9718 13.0228 86.9548 12.5978C86.9548 2.6358 86.7168 2.5848 87.5498 2.4488C87.9748 2.3638 88.9608 2.3638 89.3858 2.5848C90.4908 3.1968 93.0238 8.5178 93.7888 8.8238C94.1288 8.9598 94.3838 8.7728 94.4348 8.4328C94.5028 8.1098 94.5028 5.1688 94.5198 4.7948C94.6218 3.1458 94.3838 2.5848 95.0808 2.4658C95.4888 2.3978 96.4918 2.3808 96.8148 2.4998C97.2398 2.6528 97.1378 3.1288 97.1378 3.8938C97.1718 6.0358 97.1378 12.1558 97.1208 12.4448C97.0528 13.6008 97.2738 14.5018 96.4918 14.5868C95.7778 14.6718 94.8938 14.6208 94.6218 14.5698C94.1458 14.4678 94.0778 14.0088 91.1198 9.7418C90.8988 9.4358 90.6778 9.1128 90.4398 8.8068C90.2698 8.6028 89.9808 8.5178 89.7428 8.7388C89.4538 8.9768 89.5728 9.8778 89.5218 12.0198C89.5048 12.2408 89.5218 12.4618 89.5048 12.6828C89.3518 14.6888 89.7088 14.6378 87.9918 14.6038C87.4308 14.5868 87.0738 14.5188 87.0058 14.0428Z" fill="black"/>
</svg>
