<svg viewBox="0 0 16 16" fill="none" xmlns="http://www.w3.org/2000/svg">
    <path d="M14.8828 2C15.3063 2 15.6503 2.3432 15.6504 2.7666V5.18848L14.7393 5.19043C14.4883 5.19108 14.284 5.39556 14.2842 5.64648C14.2847 5.89748 14.4893 6.1017 14.7402 6.10156L15.6504 6.09961V6.73828L14.7422 6.73438C14.4913 6.73336 14.2858 6.93566 14.2842 7.18652C14.2829 7.43768 14.4862 7.64305 14.7373 7.64453L15.6504 7.64844V8.29785L14.7393 8.2998C14.4883 8.30046 14.284 8.50494 14.2842 8.75586C14.2847 9.00691 14.4892 9.21107 14.7402 9.21094L15.6504 9.20898V9.84766L14.7422 9.84277C14.4913 9.84176 14.2857 10.045 14.2842 10.2959C14.2829 10.5471 14.4862 10.7524 14.7373 10.7539L15.6504 10.7578V11.3916L14.7422 11.3867C14.4912 11.3857 14.2856 11.5889 14.2842 11.8398C14.2831 12.0908 14.4863 12.2964 14.7373 12.2979L15.6504 12.3018V14.8828C15.6504 15.3063 15.3063 15.6504 14.8828 15.6504H2.76660C2.73043 15.6504 2.69499 15.6465 2.66016 15.6416L5.95508 12.8623C5.96792 12.8515 5.97926 12.8386 5.99121 12.8271C6.2779 13.0115 6.61831 13.1201 6.98438 13.1201C8.00063 13.1201 8.82491 12.2955 8.8252 11.2793C8.8252 10.2629 8.0008 9.43851 6.98438 9.43848C5.96802 9.43859 5.14355 10.2629 5.14355 11.2793C5.14358 11.3784 5.15382 11.4754 5.16895 11.5703C5.09744 11.5999 5.0281 11.6379 4.96582 11.6904L2 14.1934V11.3975L5.96094 8.05469C6.25358 8.25087 6.60571 8.36519 6.98438 8.36523C8.00076 8.3652 8.82513 7.54079 8.8252 6.52441C8.8252 5.50798 8.0008 4.68363 6.98438 4.68359C5.96803 4.68372 5.14355 5.50804 5.14355 6.52441C5.14356 6.59746 5.14894 6.66941 5.15723 6.74023C5.12207 6.76128 5.08799 6.78522 5.05566 6.8125L2 9.39062V2.7666C2.00014 2.34328 2.34328 2.00014 2.76660 2H14.8828ZM6.98438 10.5127C7.40787 10.5127 7.75098 10.8558 7.75098 11.2793C7.75069 11.7026 7.4077 12.0459 6.98438 12.0459C6.56112 12.0458 6.21806 11.7025 6.21777 11.2793C6.21777 10.8558 6.56095 10.5128 6.98438 10.5127ZM6.98438 5.75781C7.40787 5.75784 7.75098 6.10091 7.75098 6.52441C7.75091 6.94786 7.40783 7.29098 6.98438 7.29102C6.561 7.29088 6.21784 6.9478 6.21777 6.52441C6.21777 6.10097 6.56096 5.75794 6.98438 5.75781Z" fill="currentColor"/>
</svg>